<svg xmlns="http://www.w3.org/2000/svg" viewBox="0 0 100 100" fill="currentColor" aria-hidden="true">
    <path d="M50.5 30.2c-1.7-8.6-8-13.7-8-13.7s-1.4 7 2.1 12.6c-8.5-1.9-17.9 2-22.6 10.7-6.4 11.9-4.9 30.4 4.3 41.9 4.1 5.1 8.6 8.1 13.1 8.1 3.4 0 5.6-1.2 8.6-1.2 3.1 0 5 1.2 8.6 1.2 4.4 0 9.4-3.6 13.3-9.3 2.7-3.9 4.2-7.2 5.9-12.4-7.7-3.1-11.9-10.1-11.9-18.1 0-7.3 3.9-13.5 9.9-16.9-3.6-5.2-9.2-8.4-15.3-8.7-3.2-.1-6.2 1-8 1.3-1 .1-1.6.1-2.9-.1-1.2-.2-2.4-1-2.7-1.4z"/>
    <path d="M49.5 24.3c-.6-4.6.6-9.3 3.2-12.9 2.3-3.2 5.8-5.3 9.5-5.9.4 4.6-1 9.3-3.6 12.9-2.4 3.3-6 5.4-9.1 5.9z"/>
</svg>
